<svg width="256" height="256" version="1.1" xmlns="http://www.w3.org/2000/svg" desc="Created with imagetracer.js version 1.2.6" ><path fill="rgb(0,0,0)" stroke="rgb(0,0,0)" stroke-width="1" opacity="0" d="M 0 0 L 256 0 L 256 256 L 0 256 L 0 0 Z M 125 53 L 115 56 L 111 60 L 101 60 L 100 61 L 96 60 L 86 65 Q 83 64 84 67 L 82 67 L 82 69 L 80 70 L 78 73 L 76 72 L 64 79 Q 61 78 62 81 L 58 84 Q 55 83 56 86 L 52 88 L 43 105 L 42 116 L 41 117 Q 39 123 42 125 Q 44 131 41 133 L 41 140 L 44 148 Q 48 155 57 158 L 70 160 L 76 164 L 81 164 L 86 173 Q 92 177 103 179 L 105 179 L 118 183 L 119 185 L 120 194 Q 124 200 133 202 Q 144 204 150 200 L 161 183 L 161 170 L 171 169 L 179 160 Q 178 157 181 158 L 182 155 L 190 152 L 204 140 L 207 136 Q 206 133 209 134 L 211 129 L 211 109 L 201 95 L 200 91 L 195 86 L 193 81 L 179 67 Q 177 63 171 64 L 168 60 L 161 57 L 145 55 L 141 53 L 125 53 Z " /><path fill="rgb(235,79,57)" stroke="rgb(235,79,57)" stroke-width="1" opacity="1" d="M 127.5 65 L 135.5 65 L 136 66.5 L 130.5 71 L 122 67.5 L 127.5 65 Z " /><path fill="rgb(235,79,57)" stroke="rgb(235,79,57)" stroke-width="1" opacity="1" d="M 143.5 68 L 150.5 68 L 158.5 70 L 162 73.5 L 174 95.5 L 176 100.5 L 176 106.5 Q 172.1 116.1 164.5 122 L 156.5 127 L 159 123.5 L 159 115.5 L 157.5 114 Q 152.8 124.3 144.5 131 Q 131.9 142.9 110.5 146 L 99 138.5 Q 98.3 136.3 100.5 137 Q 102 139.5 107.5 138 Q 115.2 135.7 119.5 130 L 131.5 126 L 143 115.5 L 152 105.5 L 152 98.5 L 148 77 Q 140.9 76.1 137 79.5 Q 136.3 81.8 138.5 81 L 140.5 81 L 145 83.5 L 146 90.5 Q 144.3 93.8 142.5 90 L 135.5 87 L 132.5 88 L 119 94.5 L 121.5 96 L 135.5 93 L 140 96.5 L 144 103.5 L 131.5 117 L 123.5 122 L 117.5 122 L 115 120.5 Q 123.2 117.7 128 111.5 L 130 108.5 L 136 100 Q 132.4 97.7 123.5 99 Q 114.5 100.5 109.5 106 L 103 106 Q 101.9 108.7 104.5 108 Q 107.5 108.5 107 112.5 L 103.5 120 Q 100.9 119.3 102 122 L 100 122 L 100 124 L 107.5 122 L 114 126.5 Q 114.8 128.8 112.5 128 Q 109.3 131.8 100.5 130 L 97 129 L 96 122.5 L 96 120.5 L 97 110.5 L 101 97.5 L 106.5 91 Q 115 84.5 128.5 83 L 132 79.5 L 138.5 71 L 143.5 68 Z " /><path fill="rgb(235,79,57)" stroke="rgb(235,79,57)" stroke-width="1" opacity="1" d="M 103.5 72 L 104.5 73 L 120.5 73 L 126 75.5 L 123.5 78 L 109.5 82 L 100 88.5 Q 93.5 95.8 91 106 Q 95 104.6 93 111.5 L 88 131.5 L 88 138.5 L 90 142 L 94 144.5 Q 94.8 146.8 92.5 146 L 82.5 151 L 78.5 151 L 72 141.5 L 72 130.5 L 76 115.5 L 84 102 Q 79.5 101.2 77.5 104 L 77 100.5 L 80 91.5 L 91.5 76 L 103.5 72 Z " /><path fill="rgb(235,79,57)" stroke="rgb(235,79,57)" stroke-width="1" opacity="1" d="M 172 79 L 173.5 79 L 182 87.5 L 200 116.5 L 198 127.5 L 190.5 135 L 178.5 143 L 165 146 L 167 140.5 L 168 132.5 L 178 117 Q 182.9 115.2 181 121.5 L 182 126.5 L 178 133.5 L 178 137 L 181 135.5 L 187 126.5 L 187 117.5 L 184 103.5 L 172 79 Z " /><path fill="rgb(235,79,57)" stroke="rgb(235,79,57)" stroke-width="1" opacity="1" d="M 74.5 87 L 77 87.5 Q 71.6 93.6 70 103.5 L 67.5 106 L 60 110 L 54.5 117 L 54 113.5 Q 56.3 99.8 65.5 93 L 74.5 87 Z " /><path fill="rgb(235,79,57)" stroke="rgb(235,79,57)" stroke-width="1" opacity="1" d="M 69.5 112 Q 72.1 111.2 71 114.5 L 64 135.5 L 64 141.5 L 65 147 L 56 143 L 53 137.5 L 53 134.5 Q 56.3 123.8 62.5 116 L 69.5 112 Z " /><path fill="rgb(235,79,57)" stroke="rgb(235,79,57)" stroke-width="1" opacity="1" d="M 159.5 132 Q 162.5 131.1 161 135.5 Q 159.4 145 153.5 150 Q 147.7 153.7 136.5 152 L 135 150.5 L 139.5 146 L 142 144.5 L 149.5 136 Q 156 135.5 159.5 132 Z " /><path fill="rgb(235,79,57)" stroke="rgb(235,79,57)" stroke-width="1" opacity="1" d="M 125.5 149 L 125 150.5 L 110.5 167 L 108.5 168 L 103.5 165 L 96.5 164 L 93 160.5 L 90 155.5 L 99.5 150 L 103.5 150 Q 106.5 153 112.5 153 Q 114 150.5 119.5 152 L 125.5 149 Z " /><path fill="rgb(1,0,0)" stroke="rgb(1,0,0)" stroke-width="1" opacity="0.5411764705882353" d="M 128.5 54 L 141.5 55 L 145.5 57 L 150.5 57 L 163.5 60 Q 168.8 66.8 178.5 69 L 192 82.5 L 209 109.5 L 209 129.5 L 198.5 142 L 177 158.5 Q 177.8 160.8 175.5 160 L 168.5 168 L 159 169 L 159 182.5 L 154 187.5 L 153 192.5 L 148.5 198 L 144.5 200 L 131.5 200 L 122 192.5 L 121 184.5 L 118.5 182 L 105.5 177 L 93.5 175 L 87 170.5 L 80.5 162 Q 73.5 162 70.5 158 L 58.5 157 L 47 148.5 L 43 140.5 L 43 129.5 L 44 124.5 L 43 123.5 L 43 114.5 L 46 101.5 L 51 92 Q 53.7 93.1 53 90.5 L 60 84.5 Q 59.3 82.3 61.5 83 Q 67.7 76.2 78.5 74 L 88.5 65 Q 96.4 60.4 110.5 62 L 121.5 55 Q 127 56.5 128.5 54 Z M 122 57 L 113 64 L 97 64 L 94 65 Q 84 68 80 76 L 75 77 L 63 84 Q 48 93 45 113 L 45 124 L 46 125 L 45 130 Q 43 143 49 148 Q 54 154 62 156 L 72 156 Q 73 161 82 160 L 86 167 L 92 172 L 106 176 L 111 176 L 114 179 L 115 178 L 120 181 L 123 181 L 123 191 L 132 198 L 145 198 L 147 197 L 151 193 Q 152 185 157 182 L 156 170 L 161 166 Q 167 168 169 165 Q 171 166 170 164 L 173 162 L 179 154 Q 181 155 180 152 L 195 143 L 207 130 L 207 110 L 191 85 L 185 77 Q 182 78 183 75 L 174 69 L 171 69 Q 168 63 161 61 L 151 59 L 144 59 L 142 57 L 122 57 Z " /><path fill="rgb(44,27,26)" stroke="rgb(44,27,26)" stroke-width="1" opacity="0.996078431372549" d="M 121.5 57 L 141.5 57 L 143.5 59 L 150.5 59 L 160.5 61 Q 167.7 62.8 170.5 69 L 173.5 69 L 183 75 Q 181.9 77.7 184.5 77 L 191 84.5 L 207 109.5 L 207 129.5 L 194.5 143 L 180 152 Q 181.1 154.7 178.5 154 L 173 162 L 170 163.5 Q 170.8 165.8 168.5 165 Q 166.8 167.7 160.5 166 L 156 169.5 L 157 181.5 Q 151.6 184.6 151 192.5 L 146.5 197 L 144.5 198 L 131.5 198 L 123 190.5 L 123 181 L 119.5 181 L 114.5 178 L 113.5 179 L 110.5 176 L 105.5 176 L 91.5 172 L 86 166.5 L 81.5 160 Q 73.4 161.1 71.5 156 L 61.5 156 Q 53.5 153.5 49 147.5 Q 43 142.5 45 129.5 L 46 124.5 L 45 123.5 L 45 112.5 Q 48.4 92.9 62.5 84 L 74.5 77 L 79.5 76 Q 84.4 68.4 93.5 65 L 96.5 64 L 112.5 64 L 121.5 57 Z M 129 64 L 124 65 L 122 67 Q 119 66 120 69 L 127 71 Q 137 72 139 66 Q 136 63 129 64 Z M 144 67 L 139 70 Q 133 73 131 80 L 129 82 Q 115 83 107 90 Q 101 94 99 101 L 96 111 L 96 120 L 95 121 L 96 130 L 101 131 Q 112 133 116 127 L 108 120 L 103 123 L 101 123 L 104 121 L 106 119 L 109 111 L 104 107 L 104 106 L 107 107 L 111 107 Q 115 102 123 100 L 135 100 L 132 106 L 121 117 L 117 119 Q 111 117 112 121 L 118 123 L 124 123 L 134 117 L 137 113 L 140 111 L 144 106 L 144 101 L 137 92 L 123 95 L 120 95 L 133 88 Q 142 88 145 95 Q 144 97 147 96 L 146 84 Q 144 80 138 80 L 147 77 L 152 104 L 147 110 L 130 126 L 121 128 Q 116 134 108 137 L 103 137 L 101 137 L 97 136 L 98 140 L 111 147 Q 138 142 152 125 Q 151 122 154 123 L 157 116 L 158 116 L 158 124 L 154 129 L 155 130 L 164 124 L 174 113 L 177 107 L 177 101 L 175 96 L 162 72 L 159 69 L 144 67 Z M 99 72 L 92 75 Q 84 82 79 92 L 75 105 L 82 103 L 83 103 Q 74 113 71 130 Q 69 147 79 152 L 83 152 L 97 146 L 88 138 L 95 107 L 95 103 L 93 106 L 92 106 L 99 92 L 110 83 L 125 79 L 128 75 L 121 72 L 99 72 Z M 170 76 L 181 99 L 186 116 L 186 127 L 180 136 L 178 137 L 183 127 L 182 117 L 181 114 L 170 127 L 163 147 L 172 145 L 177 145 L 190 137 L 200 126 L 200 114 L 184 89 Q 179 80 170 76 Z M 78 85 L 66 92 L 57 102 L 52 118 Q 51 121 54 120 L 57 116 L 68 107 L 71 104 Q 73 93 79 87 Q 80 84 78 85 Z M 72 110 L 63 115 Q 55 123 52 136 L 54 142 Q 58 147 66 148 L 67 149 L 65 143 L 65 136 L 73 112 Q 74 109 72 110 Z M 162 130 Q 157 134 149 135 L 147 138 L 133 151 L 137 153 Q 148 155 154 151 L 159 145 L 163 132 Q 164 129 162 130 Z M 131 145 L 117 152 Q 106 153 102 148 Q 97 153 89 153 L 89 157 L 94 164 L 107 168 L 112 168 L 112 167 L 132 146 L 131 145 Z M 172 149 Q 166 153 157 153 L 143 160 Q 133 161 129 159 L 128 175 Q 136 175 139 181 L 138 187 L 130 188 L 137 191 L 143 190 Q 144 182 150 178 L 141 173 L 142 169 Q 149 158 166 158 L 172 151 L 172 149 Z M 125 160 L 116 171 L 124 173 L 126 161 L 125 160 Z " /><path fill="rgb(0,0,0)" stroke="rgb(0,0,0)" stroke-width="1" opacity="0.14901960784313725" d="M 124.5 53 L 140.5 53 L 144.5 55 L 160.5 57 L 168 60 L 170.5 64 Q 176.6 63.4 178.5 67 L 193 80.5 L 195 85.5 L 200 90.5 L 201 94.5 L 211 108.5 L 211 128.5 L 209 134 Q 206.3 132.9 207 135.5 L 204 140 L 189.5 152 L 182 155 L 180.5 158 Q 178.3 157.3 179 159.5 L 170.5 169 L 161 170 L 161 182.5 L 149.5 200 Q 143.7 203.7 132.5 202 Q 123.6 200.4 120 193.5 L 119 184.5 L 117.5 183 L 104.5 179 L 102.5 179 Q 92.2 177.4 86 173 L 80.5 164 L 75.5 164 L 69.5 160 L 56.5 158 Q 48.3 154.7 44 147.5 L 41 139.5 L 41 132.5 Q 43.8 130.7 42 124.5 Q 39.2 122.7 41 116.5 L 42 115.5 L 43 104.5 L 52 88 L 56 85.5 Q 55.3 83.3 57.5 84 L 62 80.5 Q 61.3 78.3 63.5 79 L 75.5 72 L 78 73 L 79.5 70 L 82 68.5 L 82 67 L 84 67 Q 82.9 64.3 85.5 65 L 95.5 60 L 99.5 61 L 100.5 60 L 110.5 60 L 114.5 56 L 124.5 53 Z M 129 54 Q 127 57 122 55 L 111 62 Q 96 60 89 65 L 79 74 Q 68 76 62 83 Q 59 82 60 85 L 53 91 Q 54 93 51 92 L 46 102 L 43 115 L 43 124 L 44 125 L 43 130 L 43 141 L 47 149 L 59 157 L 71 158 Q 74 162 81 162 L 87 171 L 94 175 L 106 177 L 119 182 L 121 185 L 122 193 L 132 200 L 145 200 L 149 198 L 153 193 L 154 188 L 159 183 L 159 169 L 169 168 L 176 160 Q 178 161 177 159 L 199 142 L 209 130 L 209 110 L 192 83 L 179 69 Q 169 67 164 60 L 151 57 L 146 57 L 142 55 L 129 54 Z " /><path fill="rgb(189,104,75)" stroke="rgb(189,104,75)" stroke-width="1" opacity="1" d="M 128.5 64 Q 136 62.5 139 65.5 L 131.5 71 L 131.5 70 L 136 66.5 L 135.5 65 L 128.5 65 L 128.5 64 Z " /><path fill="rgb(189,104,75)" stroke="rgb(189,104,75)" stroke-width="1" opacity="1" d="M 123.5 65 L 127 65.5 L 122 67.5 L 130 70.5 L 126.5 71 L 120 69 Q 118.9 66.3 121.5 67 L 123.5 65 Z " /><path fill="rgb(189,104,75)" stroke="rgb(189,104,75)" stroke-width="1" opacity="1" d="M 143.5 67 L 149 67.5 Q 138.1 68.1 134 75.5 L 128.5 83 Q 112.6 84.6 104 93.5 L 101.5 97 L 102 95.5 L 106.5 90 Q 115 83.5 128.5 82 L 131 79.5 Q 132.6 72.6 138.5 70 L 143.5 67 Z " /><path fill="rgb(189,104,75)" stroke="rgb(189,104,75)" stroke-width="1" opacity="1" d="M 151.5 68 L 154 68.5 L 151.5 69 L 151.5 68 Z " /><path fill="rgb(189,104,75)" stroke="rgb(189,104,75)" stroke-width="1" opacity="1" d="M 155.5 69 Q 160.6 68.4 162 71.5 L 175 95.5 L 177 100.5 L 177 106.5 L 174 112.5 L 163.5 124 L 154.5 130 L 154 128.5 L 158 123.5 L 158 115.5 L 157 115.5 L 154 123 Q 151.3 121.9 152 124.5 Q 141.3 138.3 122.5 144 L 122.5 143 Q 140.4 137.4 151 124.5 L 157.5 114 L 159 115.5 L 159 123.5 L 156.5 127 L 168 118.5 L 176 106.5 L 176 100.5 L 164 76.5 L 158.5 70 Q 154.5 70.7 155.5 69 Z " /><path fill="rgb(189,104,75)" stroke="rgb(189,104,75)" stroke-width="1" opacity="1" d="M 98.5 72 L 103 72.5 L 96.5 74 L 96.5 73 L 98.5 72 Z " /><path fill="rgb(189,104,75)" stroke="rgb(189,104,75)" stroke-width="1" opacity="1" d="M 104.5 72 L 120.5 72 L 124 73.5 L 121.5 74 L 120.5 73 L 104.5 73 L 104.5 72 Z " /><path fill="rgb(189,104,75)" stroke="rgb(189,104,75)" stroke-width="1" opacity="1" d="M 93.5 74 L 95 74.5 L 87 80.5 L 86 82.5 L 86.5 84 L 85 83.5 Q 78.4 90.9 77 103.5 L 78.5 103 L 81.5 102 L 81.5 103 L 75 105 L 79 91.5 Q 83.6 81.6 91.5 75 L 93.5 74 Z " /><path fill="rgb(189,104,75)" stroke="rgb(189,104,75)" stroke-width="1" opacity="1" d="M 125.5 74 L 128 74.5 L 124.5 79 Q 117.5 79 113.5 82 L 113.5 81 L 123.5 78 L 126 75.5 L 125.5 74 Z " /><path fill="rgb(189,104,75)" stroke="rgb(189,104,75)" stroke-width="1" opacity="1" d="M 169.5 76 Q 179 80 184 88.5 L 199 111.5 L 200 115.5 L 199 115.5 L 198 111.5 L 182 87.5 L 173.5 79 L 171.5 80 L 169.5 76 Z " /><path fill="rgb(189,104,75)" stroke="rgb(189,104,75)" stroke-width="1" opacity="1" d="M 142.5 77 L 145 77.5 L 138 79.5 L 138.5 81 Q 136.3 81.8 137 79.5 L 142.5 77 Z " /><path fill="rgb(189,104,75)" stroke="rgb(189,104,75)" stroke-width="1" opacity="1" d="M 147.5 77 L 149 80.5 L 150 90.5 L 149 90.5 L 147.5 77 Z " /><path fill="rgb(189,104,75)" stroke="rgb(189,104,75)" stroke-width="1" opacity="1" d="M 140.5 80 L 146 83.5 L 145.5 85 L 143.5 82 Q 139.8 81.7 140.5 80 Z " /><path fill="rgb(189,104,75)" stroke="rgb(189,104,75)" stroke-width="1" opacity="1" d="M 172.5 81 L 182 98.5 L 184 105.5 L 183 105.5 Q 179.8 91.7 172 82.5 L 172.5 81 Z " /><path fill="rgb(189,104,75)" stroke="rgb(189,104,75)" stroke-width="1" opacity="1" d="M 109.5 82 L 112 82.5 Q 103.1 84.6 99 91.5 L 92.5 103 L 92 101.5 L 102.5 86 L 109.5 82 Z " /><path fill="rgb(189,104,75)" stroke="rgb(189,104,75)" stroke-width="1" opacity="1" d="M 79.5 84 L 79 85.5 Q 73 92.5 71 103.5 L 67.5 107 L 57 115.5 L 53.5 120 Q 50.9 120.8 52 117.5 L 57 101.5 L 65.5 92 L 71.5 88 L 70.5 90 L 61 97.5 Q 54.5 104 54 116.5 L 60 111.5 Q 59.3 109.3 61.5 110 L 70 103.5 Q 71.6 93.6 77 87.5 L 74.5 87 L 73 87.5 L 79.5 84 Z " /><path fill="rgb(189,104,75)" stroke="rgb(189,104,75)" stroke-width="1" opacity="1" d="M 135.5 87 Q 141.7 87.8 144.5 92 L 146.5 88 L 147 96 Q 144.3 97.1 145 94.5 Q 142.7 88.8 135.5 88 L 135.5 87 Z " /><path fill="rgb(189,104,75)" stroke="rgb(189,104,75)" stroke-width="1" opacity="1" d="M 130.5 88 L 132 88.5 L 122.5 93 L 122.5 92 L 130.5 88 Z " /><path fill="rgb(189,104,75)" stroke="rgb(189,104,75)" stroke-width="1" opacity="1" d="M 134.5 92 L 136.5 92 L 142 97.5 L 144 101.5 L 143 101.5 L 138.5 95 L 134.5 93 Q 133.3 95.3 128.5 94 L 128.5 93 Q 133.3 94.3 134.5 92 Z " /><path fill="rgb(189,104,75)" stroke="rgb(189,104,75)" stroke-width="1" opacity="1" d="M 150.5 93 L 152 102.5 L 151 102.5 L 150.5 93 Z " /><path fill="rgb(189,104,75)" stroke="rgb(189,104,75)" stroke-width="1" opacity="1" d="M 119.5 94 L 122 95.5 L 120.5 96 L 119.5 94 Z " /><path fill="rgb(189,104,75)" stroke="rgb(189,104,75)" stroke-width="1" opacity="1" d="M 123.5 94 L 127 94.5 L 123.5 95 L 123.5 94 Z " /><path fill="rgb(189,104,75)" stroke="rgb(189,104,75)" stroke-width="1" opacity="1" d="M 100.5 98 L 101 99.5 Q 97 106 96.5 116 L 96 110.5 L 100.5 98 Z " /><path fill="rgb(189,104,75)" stroke="rgb(189,104,75)" stroke-width="1" opacity="1" d="M 123.5 99 L 134 99.5 L 123.5 100 L 123.5 99 Z " /><path fill="rgb(189,104,75)" stroke="rgb(189,104,75)" stroke-width="1" opacity="1" d="M 119.5 100 L 122 100.5 Q 114.1 101.6 110.5 107 L 106.5 107 L 106.5 106 L 109.5 106 L 119.5 100 Z " /><path fill="rgb(189,104,75)" stroke="rgb(189,104,75)" stroke-width="1" opacity="1" d="M 135.5 100 L 136 101.5 L 130 110 Q 127.3 108.9 128 111.5 Q 123.2 117.7 115 120.5 Q 117.4 123.1 123.5 122 Q 135.3 115.8 143 105.5 L 143.5 104 L 144 105.5 L 139.5 111 L 137 112.5 L 133.5 117 L 123.5 123 L 117.5 123 L 112 121 Q 110.7 117.3 116.5 119 L 120.5 117 L 132 105.5 L 135.5 100 Z " /><path fill="rgb(189,104,75)" stroke="rgb(189,104,75)" stroke-width="1" opacity="1" d="M 83.5 102 L 84 103.5 L 76.5 115 L 76 113.5 L 83.5 102 Z " /><path fill="rgb(189,104,75)" stroke="rgb(189,104,75)" stroke-width="1" opacity="1" d="M 94.5 103 L 95 106.5 L 92.5 116 L 92 112.5 Q 94.7 110.8 93 104.5 L 94.5 103 Z " /><path fill="rgb(189,104,75)" stroke="rgb(189,104,75)" stroke-width="1" opacity="1" d="M 151.5 104 L 152 105.5 L 141.5 117 L 131.5 126 L 121.5 129 L 107.5 138 L 101 138 L 101.5 136 Q 102.8 138.3 107.5 137 Q 115.8 134.3 120.5 128 L 129.5 126 L 147 109.5 L 151.5 104 Z " /><path fill="rgb(189,104,75)" stroke="rgb(189,104,75)" stroke-width="1" opacity="1" d="M 103.5 107 L 109 110.5 L 106 118.5 L 103.5 121 L 102 120.5 L 105 118.5 L 107 110.5 L 103.5 107 Z " /><path fill="rgb(189,104,75)" stroke="rgb(189,104,75)" stroke-width="1" opacity="1" d="M 184.5 107 L 185 109.5 L 184 109.5 L 184.5 107 Z " /><path fill="rgb(189,104,75)" stroke="rgb(189,104,75)" stroke-width="1" opacity="1" d="M 71.5 110 Q 73.8 109.3 73 111.5 L 70.5 118 L 70 115.5 L 71 112 L 61 117.5 L 54 130.5 L 53.5 134 L 53 130.5 L 62.5 115 L 71.5 110 Z " /><path fill="rgb(189,104,75)" stroke="rgb(189,104,75)" stroke-width="1" opacity="1" d="M 185.5 111 L 186 114.5 L 185 114.5 L 185.5 111 Z " /><path fill="rgb(189,104,75)" stroke="rgb(189,104,75)" stroke-width="1" opacity="1" d="M 180.5 114 Q 182.9 116.1 182 121.5 L 181 121.5 Q 182.9 115.2 178 117 L 168.5 132 L 168 130.5 Q 172.7 120.7 180.5 114 Z " /><path fill="rgb(189,104,75)" stroke="rgb(189,104,75)" stroke-width="1" opacity="1" d="M 75.5 116 L 76 117.5 Q 73.2 119.2 74 124.5 L 74.5 126 L 73 125.5 L 72 141.5 L 78.5 151 L 82.5 151 L 94 146 L 91.5 142 Q 89.3 142.8 90 140.5 L 88.5 138 L 97 145.5 L 82.5 152 L 78.5 152 Q 68.7 146.8 71 129.5 L 73 120.5 L 75.5 116 Z " /><path fill="rgb(189,104,75)" stroke="rgb(189,104,75)" stroke-width="1" opacity="1" d="M 186.5 117 L 187 126.5 L 180 136.5 L 180.5 138 Q 177.8 136.7 180 135.5 L 186 126.5 L 186.5 117 Z " /><path fill="rgb(189,104,75)" stroke="rgb(189,104,75)" stroke-width="1" opacity="1" d="M 199.5 117 L 200 125.5 L 189.5 137 L 176.5 145 L 167.5 146 L 167.5 145 L 178.5 143 L 190.5 135 L 198 127.5 L 199.5 117 Z " /><path fill="rgb(189,104,75)" stroke="rgb(189,104,75)" stroke-width="1" opacity="1" d="M 69.5 119 L 70 121.5 L 67.5 128 L 67 125.5 L 69.5 119 Z " /><path fill="rgb(189,104,75)" stroke="rgb(189,104,75)" stroke-width="1" opacity="1" d="M 95.5 120 Q 98.3 121.3 96 122.5 L 95.5 124 L 95.5 120 Z " /><path fill="rgb(189,104,75)" stroke="rgb(189,104,75)" stroke-width="1" opacity="1" d="M 107.5 120 L 116 126.5 Q 112.3 132.8 100.5 131 L 96 130 L 96.5 126 L 97 129 Q 101.2 130.9 109.5 130 L 114 128 L 112.5 125 L 105.5 122 L 103.5 123 L 103.5 122 L 107.5 120 Z " /><path fill="rgb(189,104,75)" stroke="rgb(189,104,75)" stroke-width="1" opacity="1" d="M 90.5 122 L 91 125.5 L 90 125.5 L 90.5 122 Z " /><path fill="rgb(189,104,75)" stroke="rgb(189,104,75)" stroke-width="1" opacity="1" d="M 100.5 122 L 101.5 124 Q 98.7 124.7 100.5 122 Z " /><path fill="rgb(189,104,75)" stroke="rgb(189,104,75)" stroke-width="1" opacity="1" d="M 182.5 123 L 183 126.5 L 178.5 135 L 178 133.5 L 182.5 123 Z " /><path fill="rgb(189,104,75)" stroke="rgb(189,104,75)" stroke-width="1" opacity="1" d="M 89.5 127 L 90 130.5 L 88.5 135 L 88 131.5 L 89.5 127 Z " /><path fill="rgb(189,104,75)" stroke="rgb(189,104,75)" stroke-width="1" opacity="1" d="M 66.5 129 L 67 131.5 Q 64 135 64.5 142 L 64 135.5 L 66.5 129 Z " /><path fill="rgb(189,104,75)" stroke="rgb(189,104,75)" stroke-width="1" opacity="1" d="M 163.5 129 L 163 130.5 L 159.5 142 L 159 140.5 L 161 132 L 149.5 136 L 142 143.5 L 140.5 146 L 135 150.5 L 136.5 152 L 148.5 152 L 156 147.5 L 158.5 143 L 159 144.5 L 153.5 151 Q 147.7 154.7 136.5 153 L 133 150.5 L 147 137.5 L 148.5 135 Q 158.2 134.2 163.5 129 Z " /><path fill="rgb(189,104,75)" stroke="rgb(189,104,75)" stroke-width="1" opacity="1" d="M 167.5 133 L 168 135.5 L 165 145.5 L 165.5 147 Q 162.2 148.1 163 145.5 L 167.5 133 Z " /><path fill="rgb(189,104,75)" stroke="rgb(189,104,75)" stroke-width="1" opacity="1" d="M 52.5 135 L 56 143 L 63 146.5 L 61.5 147 L 54 141.5 Q 51 139 52.5 135 Z " /><path fill="rgb(189,104,75)" stroke="rgb(189,104,75)" stroke-width="1" opacity="1" d="M 97 136 Q 100 134.8 99 138.5 Q 103.9 144.1 112.5 146 L 120.5 144 L 120.5 145 L 110.5 147 L 98 140 L 97 136 Z " /><path fill="rgb(189,104,75)" stroke="rgb(189,104,75)" stroke-width="1" opacity="1" d="M 65.5 143 L 67 148.5 L 65.5 148 L 64 147.5 L 65.5 143 Z " /><path fill="rgb(189,104,75)" stroke="rgb(189,104,75)" stroke-width="1" opacity="1" d="M 130.5 145 L 132 145.5 L 112 166.5 L 112 168 L 109 167.5 L 116 161.5 L 125 150 L 117.5 152 L 117.5 151 L 122.5 150 L 130.5 145 Z " /><path fill="rgb(189,104,75)" stroke="rgb(189,104,75)" stroke-width="1" opacity="1" d="M 101.5 148 L 109 151.5 L 106.5 152 Q 104.8 149.2 99.5 150 L 90 155.5 L 96.5 164 L 99 164.5 L 96.5 165 L 94 164 L 89 156.5 L 89 153 Q 97.1 152.7 101.5 148 Z " /><path fill="rgb(189,104,75)" stroke="rgb(189,104,75)" stroke-width="1" opacity="1" d="M 171.5 149 L 172 150.5 L 166 158 Q 149.5 158.1 142 168.5 L 141 173 L 150 177.5 Q 144 181.7 143 190 L 136.5 191 L 130 187.5 L 138 187 L 139 180.5 Q 136.2 174.6 128 175 L 129 159 Q 133.5 161 142.5 160 L 156.5 153 Q 165.8 152.8 171.5 149 Z " /><path fill="rgb(189,104,75)" stroke="rgb(189,104,75)" stroke-width="1" opacity="1" d="M 110.5 152 L 113 152.5 L 110.5 153 L 110.5 152 Z " /><path fill="rgb(189,104,75)" stroke="rgb(189,104,75)" stroke-width="1" opacity="1" d="M 124.5 160 L 126 160.5 L 124 173 L 116 171 L 124.5 160 Z " /><path fill="rgb(189,104,75)" stroke="rgb(189,104,75)" stroke-width="1" opacity="1" d="M 100.5 165 Q 106 164.5 108 167.5 L 106.5 168 L 100.5 166 L 100.5 165 Z " /></svg>